# xmcd
#
# Track frame offsets: 
#        150
#        19966
#        34515
#        49390
#        65253
#
# Disc length: 1139 seconds
#
# Revision: 0
# Processed by: cddbd v1.5.2PL0 Copyright (c) Steve Scherf et al.
# Submitted via: ExactAudioCopy v0.95b4
#
DISCID=3c047105
DTITLE=J.D. Thompson and the Big Bad Wolves - The Animal That I (There
DTITLE=fore) AM
DYEAR=2010
DGENRE=
TTITLE0=Evil
TTITLE1=She Doesn't Love Me (and I Don't Care)
TTITLE2=Big Bad Wolf
TTITLE3=Dragon Fly
TTITLE4=I Want Hurt
EXTD=
EXTT0=
EXTT1=
EXTT2=
EXTT3=
EXTT4=
PLAYORDER=
